<svg width="40" height="40" viewBox="0 0 40 40" fill="none" xmlns="http://www.w3.org/2000/svg">
<path d="M29 15.25H11C10.8661 15.25 10.75 15.1339 10.75 15C10.75 14.8661 10.8661 14.75 11 14.75H29C29.1339 14.75 29.25 14.8661 29.25 15C29.25 15.1339 29.1339 15.25 29 15.25Z" fill="#292D32" stroke="#20262E"/>
<path d="M29 20.25H11C10.8661 20.25 10.75 20.1339 10.75 20C10.75 19.8661 10.8661 19.75 11 19.75H29C29.1339 19.75 29.25 19.8661 29.25 20C29.25 20.1339 29.1339 20.25 29 20.25Z" fill="#292D32" stroke="#20262E"/>
<path d="M29 25.25H11C10.8661 25.25 10.75 25.1339 10.75 25C10.75 24.8661 10.8661 24.75 11 24.75H29C29.1339 24.75 29.25 24.8661 29.25 25C29.25 25.1339 29.1339 25.25 29 25.25Z" fill="#292D32" stroke="#20262E"/>
</svg>
