<svg width="30" height="30" viewBox="0 0 30 30" fill="none" xmlns="http://www.w3.org/2000/svg">
<path d="M24.1744 18.1125L22.9244 16.0375C22.6619 15.575 22.4244 14.7 22.4244 14.1875V11.025C22.4244 8.0875 20.6994 5.55 18.2119 4.3625C17.5619 3.2125 16.3619 2.5 14.9869 2.5C13.6244 2.5 12.3994 3.2375 11.7494 4.4C9.31194 5.6125 7.62444 8.125 7.62444 11.025V14.1875C7.62444 14.7 7.38694 15.575 7.12444 16.025L5.86194 18.1125C5.36194 18.95 5.24944 19.875 5.56194 20.725C5.86194 21.5625 6.57444 22.2125 7.49944 22.525C9.92444 23.35 12.4744 23.75 15.0244 23.75C17.5744 23.75 20.1244 23.35 22.5494 22.5375C23.4244 22.25 24.0994 21.5875 24.4244 20.725C24.7494 19.8625 24.6619 18.9125 24.1744 18.1125Z" fill="#5B6B79"/>
<path d="M18.5361 25.0125C18.0111 26.4625 16.6236 27.5 14.9986 27.5C14.0111 27.5 13.0361 27.1 12.3486 26.3875C11.9486 26.0125 11.6486 25.5125 11.4736 25C11.6361 25.025 11.7986 25.0375 11.9736 25.0625C12.2611 25.1 12.5611 25.1375 12.8611 25.1625C13.5736 25.225 14.2986 25.2625 15.0236 25.2625C15.7361 25.2625 16.4486 25.225 17.1486 25.1625C17.4111 25.1375 17.6736 25.125 17.9236 25.0875C18.1236 25.0625 18.3236 25.0375 18.5361 25.0125Z" fill="#5B6B79"/>
</svg>
