<svg width="147" height="35" viewBox="0 0 147 35" fill="none" xmlns="http://www.w3.org/2000/svg">
<path d="M0.48 2.32H7.68C9.616 2.32 11.368 2.624 12.936 3.232C14.504 3.824 15.752 4.792 16.68 6.136C17.624 7.464 18.096 9.232 18.096 11.44C18.096 13.648 17.624 15.448 16.68 16.84C15.752 18.232 14.504 19.264 12.936 19.936C11.368 20.592 9.616 20.92 7.68 20.92H2.448V34H0.48V2.32ZM2.448 19.048H7.152C8.784 19.048 10.264 18.808 11.592 18.328C12.936 17.848 14.008 17.056 14.808 15.952C15.624 14.832 16.032 13.336 16.032 11.464C16.032 9.576 15.624 8.112 14.808 7.072C14.008 6.016 12.936 5.272 11.592 4.84C10.264 4.408 8.784 4.192 7.152 4.192H2.448V19.048ZM23.5028 34H21.4388V0.975999H23.5028V34ZM44.2331 34V29.728C44.1371 30.16 43.7691 30.768 43.1291 31.552C42.4891 32.336 41.6011 33.04 40.4651 33.664C39.3291 34.272 37.9771 34.576 36.4091 34.576C34.6491 34.576 33.0171 34.176 31.5131 33.376C30.0091 32.56 28.7931 31.376 27.8651 29.824C26.9531 28.256 26.4971 26.368 26.4971 24.16C26.4971 21.952 26.9531 20.072 27.8651 18.52C28.7931 16.952 30.0091 15.76 31.5131 14.944C33.0171 14.128 34.6491 13.72 36.4091 13.72C37.9611 13.72 39.3051 14.024 40.4411 14.632C41.5931 15.224 42.4971 15.904 43.1531 16.672C43.8091 17.424 44.1691 18.056 44.2331 18.568V14.296H46.2011V34H44.2331ZM28.5131 24.16C28.5131 25.936 28.8971 27.464 29.6651 28.744C30.4331 30.024 31.4251 31 32.6411 31.672C33.8571 32.344 35.1291 32.68 36.4571 32.68C37.9291 32.68 39.2411 32.336 40.3931 31.648C41.5451 30.96 42.4571 29.976 43.1291 28.696C43.8011 27.416 44.1371 25.904 44.1371 24.16C44.1371 22.416 43.8011 20.904 43.1291 19.624C42.4571 18.344 41.5451 17.36 40.3931 16.672C39.2411 15.968 37.9291 15.616 36.4571 15.616C35.1291 15.616 33.8571 15.96 32.6411 16.648C31.4251 17.32 30.4331 18.296 29.6651 19.576C28.8971 20.856 28.5131 22.384 28.5131 24.16ZM59.319 13.72C60.535 13.72 61.727 13.984 62.895 14.512C64.063 15.04 65.023 15.88 65.775 17.032C66.527 18.184 66.903 19.68 66.903 21.52V34H64.839V22.072C64.839 19.736 64.295 18.072 63.207 17.08C62.119 16.072 60.743 15.568 59.079 15.568C57.959 15.568 56.879 15.896 55.839 16.552C54.815 17.192 53.967 18.072 53.295 19.192C52.623 20.296 52.287 21.536 52.287 22.912V34H50.271V14.296H52.287V18.232C52.383 17.656 52.759 17.016 53.415 16.312C54.071 15.608 54.911 15 55.935 14.488C56.975 13.976 58.103 13.72 59.319 13.72Z" fill="#D1ACFC"/>
<path d="M70.3869 0.174999H91.3738V5.83812H76.7419V14.2944H91.1688V19.7781H76.7419V28.3369H91.3738V34H70.3869V0.174999ZM90.4397 14.296H96.9677L102.368 28.432L107.768 14.296H114.272L105.944 34H98.7917L90.4397 14.296ZM118.341 19.5284L118.775 19.6031V34H112.989V14.266H120.808L127.251 28.618L126.818 28.7077V14.266H132.603V34H124.74L118.341 19.5284ZM137.086 18.7958H132.63V14.266H146.743V18.7958H142.288V34H137.086V18.7958Z" fill="#9D47FF"/>
</svg>
