<svg width="202" height="40" viewBox="0 0 202 40" fill="none" xmlns="http://www.w3.org/2000/svg">
<path d="M11.9585 8.33337C11.9585 9.08574 12.5811 9.70837 13.3335 9.70837C14.0859 9.70837 14.7085 9.08574 14.7085 8.33337V3.33337C14.7085 2.58101 14.0859 1.95837 13.3335 1.95837C12.5811 1.95837 11.9585 2.58101 11.9585 3.33337V8.33337Z" fill="#A861FA" stroke="#A861FA" stroke-width="0.25"/>
<path d="M25.2915 8.33337C25.2915 9.08574 25.9141 9.70837 26.6665 9.70837C27.4189 9.70837 28.0415 9.08574 28.0415 8.33337V3.33337C28.0415 2.58101 27.4189 1.95837 26.6665 1.95837C25.9141 1.95837 25.2915 2.58101 25.2915 3.33337V8.33337Z" fill="#A861FA" stroke="#A861FA" stroke-width="0.25"/>
<path d="M12.8018 23.8553L12.8016 23.8556L12.8114 23.8649C13.1713 24.2059 13.6651 24.4167 14.1667 24.4167C14.6682 24.4167 15.162 24.2059 15.5219 23.8649L15.5344 23.853L15.5452 23.8396L15.6452 23.7146L15.7452 23.5896L15.752 23.5811L15.758 23.5721C15.8318 23.4614 15.8903 23.3472 15.9314 23.2294C15.9872 23.1144 16.0264 22.9959 16.0466 22.8745L16.0467 22.8745L16.0475 22.8688L16.0488 22.8595C16.0645 22.7497 16.0833 22.6181 16.0833 22.5001C16.0833 21.9985 15.8725 21.5048 15.5315 21.1448L15.5316 21.1447L15.5244 21.1376C14.7953 20.4277 13.5221 20.4244 12.8066 21.14L12.8063 21.1397L12.7975 21.1495C12.6293 21.3364 12.4971 21.5436 12.4026 21.7706C12.3086 21.9961 12.25 22.2455 12.25 22.5001C12.25 23.0195 12.4618 23.4964 12.8018 23.8553Z" fill="#A861FA" stroke="#A861FA" stroke-width="0.5"/>
<path d="M18.7261 23.7692L18.7258 23.7695L18.7332 23.7762C18.9071 23.9327 19.0862 24.059 19.3203 24.1494C19.5327 24.2376 19.7651 24.2916 20.0002 24.2916C20.4676 24.2916 20.9312 24.0945 21.2695 23.774L21.2757 23.7681L21.2811 23.7614C21.3019 23.7354 21.3231 23.7109 21.3461 23.6843C21.3585 23.6701 21.3714 23.6552 21.385 23.6392C21.4205 23.5974 21.4588 23.5502 21.4891 23.5002C21.5585 23.3957 21.6123 23.2894 21.6492 23.1813C21.7021 23.0738 21.7383 22.9646 21.7568 22.8539L21.7568 22.8539L21.7572 22.851L21.758 22.8457C21.7741 22.733 21.7918 22.6089 21.7918 22.4999C21.7918 22.0325 21.5947 21.569 21.2742 21.2307L21.2743 21.2306L21.2719 21.2282C20.7682 20.7245 19.9815 20.583 19.3209 20.8503C19.0865 20.9407 18.9073 21.0671 18.7332 21.2237L18.7327 21.2232L18.7239 21.233C18.5648 21.4098 18.4404 21.605 18.3514 21.8185C18.2628 22.0313 18.2085 22.2643 18.2085 22.4999C18.2085 22.9847 18.4061 23.4314 18.7261 23.7692Z" fill="#A861FA" stroke="#A861FA" stroke-width="0.25"/>
<path d="M14.1667 30C13.95 30 13.7333 29.9501 13.5333 29.8667C13.3167 29.7834 13.1333 29.6667 12.9833 29.5167C12.8333 29.3667 12.7167 29.1834 12.6333 28.9667C12.55 28.7667 12.5 28.55 12.5 28.3334C12.5 28.1167 12.55 27.9 12.6333 27.7C12.7167 27.4834 12.8333 27.3001 12.9833 27.1501C13.1333 27.0001 13.3167 26.8834 13.5333 26.8C13.9333 26.6334 14.4 26.6167 14.8 26.8C15.0167 26.8834 15.2 27.0001 15.35 27.1501C15.5 27.3001 15.6167 27.4834 15.7 27.7C15.7833 27.9 15.8333 28.1167 15.8333 28.3334C15.8333 28.55 15.7833 28.7667 15.7 28.9667C15.6167 29.1834 15.5 29.3667 15.35 29.5167C15.2 29.6667 15.0167 29.7834 14.8 29.8667C14.6 29.9501 14.3833 30 14.1667 30Z" fill="#A861FA"/>
<path d="M34.1668 16.3999H5.8335C5.15016 16.3999 4.5835 15.8332 4.5835 15.1499C4.5835 14.4666 5.15016 13.8999 5.8335 13.8999H34.1668C34.8502 13.8999 35.4168 14.4666 35.4168 15.1499C35.4168 15.8332 34.8502 16.3999 34.1668 16.3999Z" fill="#A861FA"/>
<path d="M30.0002 39.5833C28.0502 39.5833 26.2002 38.8833 24.7835 37.6C24.1835 37.1 23.6502 36.4667 23.2168 35.7333C22.4835 34.5333 22.0835 33.1167 22.0835 31.6667C22.0835 27.3 25.6335 23.75 30.0002 23.75C32.2668 23.75 34.4335 24.7333 35.9335 26.4333C37.2168 27.9 37.9168 29.75 37.9168 31.6667C37.9168 33.1167 37.5168 34.5334 36.7668 35.75C35.3668 38.1167 32.7668 39.5833 30.0002 39.5833ZM30.0002 26.25C27.0168 26.25 24.5835 28.6833 24.5835 31.6667C24.5835 32.65 24.8502 33.6167 25.3668 34.45C25.6502 34.95 26.0168 35.3667 26.4168 35.7167C27.4168 36.6167 28.6668 37.0833 30.0002 37.0833C31.9168 37.0833 33.6502 36.1 34.6335 34.4667C35.1502 33.6167 35.4168 32.6667 35.4168 31.6667C35.4168 30.3667 34.9335 29.1 34.0668 28.0833C33.0335 26.9167 31.5502 26.25 30.0002 26.25Z" fill="#A861FA"/>
<path d="M29.0496 34.5666C28.733 34.5666 28.4163 34.4499 28.1663 34.1999L26.5163 32.55C26.033 32.0666 26.033 31.2666 26.5163 30.7833C26.9996 30.3 27.7996 30.3 28.283 30.7833L29.083 31.5833L31.7496 29.1166C32.2496 28.65 33.0496 28.6833 33.5163 29.1833C33.983 29.6833 33.9496 30.4833 33.4496 30.95L29.8996 34.2333C29.6496 34.45 29.3496 34.5666 29.0496 34.5666Z" fill="#A861FA"/>
<path d="M25.6167 37.9167H13.3333C7.25 37.9167 3.75 34.4167 3.75 28.3334V14.1667C3.75 8.08337 7.25 4.58337 13.3333 4.58337H26.6667C32.75 4.58337 36.25 8.08337 36.25 14.1667V27.2667C36.25 27.7834 35.9333 28.25 35.4333 28.4334C34.95 28.6167 34.4 28.4834 34.05 28.0834C33.0167 26.9167 31.5333 26.25 29.9833 26.25C27 26.25 24.5667 28.6834 24.5667 31.6667C24.5667 32.65 24.8333 33.6167 25.35 34.4501C25.6333 34.9501 26 35.3667 26.4 35.7167C26.8 36.05 26.95 36.6001 26.7667 37.1001C26.6167 37.5834 26.15 37.9167 25.6167 37.9167ZM13.3333 7.08337C8.56667 7.08337 6.25 9.40004 6.25 14.1667V28.3334C6.25 33.1 8.56667 35.4167 13.3333 35.4167H23.0333C22.4167 34.2834 22.0833 33 22.0833 31.6667C22.0833 27.3 25.6333 23.75 30 23.75C31.3167 23.75 32.6167 24.0834 33.75 24.7001V14.1667C33.75 9.40004 31.4333 7.08337 26.6667 7.08337H13.3333Z" fill="#A861FA"/>
<path d="M53.48 5.32H60.68C62.616 5.32 64.368 5.624 65.936 6.232C67.504 6.824 68.752 7.792 69.68 9.136C70.624 10.464 71.096 12.232 71.096 14.44C71.096 16.648 70.624 18.448 69.68 19.84C68.752 21.232 67.504 22.264 65.936 22.936C64.368 23.592 62.616 23.92 60.68 23.92H55.448V37H53.48V5.32ZM55.448 22.048H60.152C61.784 22.048 63.264 21.808 64.592 21.328C65.936 20.848 67.008 20.056 67.808 18.952C68.624 17.832 69.032 16.336 69.032 14.464C69.032 12.576 68.624 11.112 67.808 10.072C67.008 9.016 65.936 8.272 64.592 7.84C63.264 7.408 61.784 7.192 60.152 7.192H55.448V22.048ZM76.5028 37H74.4388V3.976H76.5028V37ZM97.2331 37V32.728C97.1371 33.16 96.7691 33.768 96.1291 34.552C95.4891 35.336 94.6011 36.04 93.4651 36.664C92.3291 37.272 90.9771 37.576 89.4091 37.576C87.6491 37.576 86.0171 37.176 84.5131 36.376C83.0091 35.56 81.7931 34.376 80.8651 32.824C79.9531 31.256 79.4971 29.368 79.4971 27.16C79.4971 24.952 79.9531 23.072 80.8651 21.52C81.7931 19.952 83.0091 18.76 84.5131 17.944C86.0171 17.128 87.6491 16.72 89.4091 16.72C90.9611 16.72 92.3051 17.024 93.4411 17.632C94.5931 18.224 95.4971 18.904 96.1531 19.672C96.8091 20.424 97.1691 21.056 97.2331 21.568V17.296H99.2011V37H97.2331ZM81.5131 27.16C81.5131 28.936 81.8971 30.464 82.6651 31.744C83.4331 33.024 84.4251 34 85.6411 34.672C86.8571 35.344 88.1291 35.68 89.4571 35.68C90.9291 35.68 92.2411 35.336 93.3931 34.648C94.5451 33.96 95.4571 32.976 96.1291 31.696C96.8011 30.416 97.1371 28.904 97.1371 27.16C97.1371 25.416 96.8011 23.904 96.1291 22.624C95.4571 21.344 94.5451 20.36 93.3931 19.672C92.2411 18.968 90.9291 18.616 89.4571 18.616C88.1291 18.616 86.8571 18.96 85.6411 19.648C84.4251 20.32 83.4331 21.296 82.6651 22.576C81.8971 23.856 81.5131 25.384 81.5131 27.16ZM112.319 16.72C113.535 16.72 114.727 16.984 115.895 17.512C117.063 18.04 118.023 18.88 118.775 20.032C119.527 21.184 119.903 22.68 119.903 24.52V37H117.839V25.072C117.839 22.736 117.295 21.072 116.207 20.08C115.119 19.072 113.743 18.568 112.079 18.568C110.959 18.568 109.879 18.896 108.839 19.552C107.815 20.192 106.967 21.072 106.295 22.192C105.623 23.296 105.287 24.536 105.287 25.912V37H103.271V17.296H105.287V21.232C105.383 20.656 105.759 20.016 106.415 19.312C107.071 18.608 107.911 18 108.935 17.488C109.975 16.976 111.103 16.72 112.319 16.72Z" fill="#D1ACFC"/>
<path d="M123.387 3.175H144.374V8.83812H129.742V17.2944H144.169V22.7781H129.742V31.3369H144.374V37H123.387V3.175ZM143.44 17.296H149.968L155.368 31.432L160.768 17.296H167.272L158.944 37H151.792L143.44 17.296ZM171.341 22.5284L171.775 22.6031V37H165.989V17.266H173.808L180.251 31.618L179.818 31.7077V17.266H185.603V37H177.74L171.341 22.5284ZM190.086 21.7958H185.63V17.266H199.743V21.7958H195.288V37H190.086V21.7958Z" fill="#9D47FF"/>
</svg>
