<svg width="40" height="40" viewBox="0 0 40 40" fill="none" xmlns="http://www.w3.org/2000/svg">
<path d="M11.9583 8.33325C11.9583 9.08562 12.5809 9.70825 13.3333 9.70825C14.0856 9.70825 14.7083 9.08562 14.7083 8.33325V3.33325C14.7083 2.58088 14.0856 1.95825 13.3333 1.95825C12.5809 1.95825 11.9583 2.58088 11.9583 3.33325V8.33325Z" fill="#A861FA" stroke="#A861FA" stroke-width="0.25"/>
<path d="M25.2917 8.33325C25.2917 9.08562 25.9144 9.70825 26.6667 9.70825C27.4191 9.70825 28.0417 9.08562 28.0417 8.33325V3.33325C28.0417 2.58088 27.4191 1.95825 26.6667 1.95825C25.9144 1.95825 25.2917 2.58088 25.2917 3.33325V8.33325Z" fill="#A861FA" stroke="#A861FA" stroke-width="0.25"/>
<path d="M12.8018 23.8553L12.8016 23.8556L12.8114 23.8649C13.1713 24.2059 13.6651 24.4167 14.1667 24.4167C14.6682 24.4167 15.162 24.2059 15.5219 23.8649L15.5344 23.853L15.5452 23.8396L15.7452 23.5896L15.752 23.5811L15.758 23.5721C15.8318 23.4614 15.8903 23.3472 15.9314 23.2294C15.9872 23.1144 16.0264 22.9959 16.0466 22.8745L16.0467 22.8745L16.0475 22.8688L16.0488 22.8595C16.0645 22.7497 16.0833 22.6181 16.0833 22.5001C16.0833 21.9985 15.8725 21.5048 15.5315 21.1448L15.5316 21.1447L15.5244 21.1376C14.7953 20.4277 13.5221 20.4244 12.8066 21.14L12.8063 21.1397L12.7975 21.1495C12.6293 21.3364 12.4971 21.5436 12.4026 21.7706C12.3086 21.9961 12.25 22.2455 12.25 22.5001C12.25 23.0195 12.4618 23.4964 12.8018 23.8553Z" fill="#A861FA" stroke="#A861FA" stroke-width="0.5"/>
<path d="M18.7258 23.7692L18.7256 23.7695L18.733 23.7762C18.9069 23.9327 19.086 24.059 19.3201 24.1494C19.5325 24.2376 19.7649 24.2916 19.9999 24.2916C20.4673 24.2916 20.9309 24.0945 21.2692 23.774L21.2755 23.7681L21.2809 23.7614C21.3016 23.7354 21.3229 23.7109 21.3459 23.6843C21.3583 23.6701 21.3712 23.6552 21.3847 23.6392C21.4203 23.5974 21.4585 23.5502 21.4888 23.5002C21.5583 23.3957 21.612 23.2894 21.649 23.1813C21.7018 23.0738 21.7381 22.9646 21.7566 22.8539L21.7566 22.8539L21.757 22.851L21.7577 22.8457C21.7739 22.733 21.7916 22.6089 21.7916 22.4999C21.7916 22.0325 21.5945 21.569 21.274 21.2307L21.274 21.2306L21.2716 21.2282C20.7679 20.7245 19.9813 20.583 19.3207 20.8503C19.0863 20.9407 18.907 21.0671 18.733 21.2237L18.7325 21.2232L18.7237 21.233C18.5646 21.4098 18.4402 21.605 18.3512 21.8185C18.2625 22.0313 18.2083 22.2643 18.2083 22.4999C18.2083 22.9847 18.4058 23.4314 18.7258 23.7692Z" fill="#A861FA" stroke="#A861FA" stroke-width="0.25"/>
<path d="M14.1667 30C13.95 30 13.7333 29.9501 13.5333 29.8667C13.3167 29.7834 13.1333 29.6667 12.9833 29.5167C12.8333 29.3667 12.7167 29.1834 12.6333 28.9667C12.55 28.7667 12.5 28.55 12.5 28.3334C12.5 28.1167 12.55 27.9 12.6333 27.7C12.7167 27.4834 12.8333 27.3001 12.9833 27.1501C13.1333 27.0001 13.3167 26.8834 13.5333 26.8C13.9333 26.6334 14.4 26.6167 14.8 26.8C15.0167 26.8834 15.2 27.0001 15.35 27.1501C15.5 27.3001 15.6167 27.4834 15.7 27.7C15.7833 27.9 15.8333 28.1167 15.8333 28.3334C15.8333 28.55 15.7833 28.7667 15.7 28.9667C15.6167 29.1834 15.5 29.3667 15.35 29.5167C15.2 29.6667 15.0167 29.7834 14.8 29.8667C14.6 29.9501 14.3833 30 14.1667 30Z" fill="#A861FA"/>
<path d="M34.1666 16.3999H5.83325C5.14992 16.3999 4.58325 15.8332 4.58325 15.1499C4.58325 14.4666 5.14992 13.8999 5.83325 13.8999H34.1666C34.8499 13.8999 35.4166 14.4666 35.4166 15.1499C35.4166 15.8332 34.8499 16.3999 34.1666 16.3999Z" fill="#A861FA"/>
<path d="M29.9999 39.5833C28.0499 39.5833 26.1999 38.8833 24.7833 37.6C24.1833 37.1 23.6499 36.4667 23.2166 35.7333C22.4833 34.5333 22.0833 33.1167 22.0833 31.6667C22.0833 27.3 25.6333 23.75 29.9999 23.75C32.2666 23.75 34.4332 24.7333 35.9332 26.4333C37.2166 27.9 37.9166 29.75 37.9166 31.6667C37.9166 33.1167 37.5166 34.5334 36.7666 35.75C35.3666 38.1167 32.7666 39.5833 29.9999 39.5833ZM29.9999 26.25C27.0166 26.25 24.5833 28.6833 24.5833 31.6667C24.5833 32.65 24.8499 33.6167 25.3666 34.45C25.6499 34.95 26.0166 35.3667 26.4166 35.7167C27.4166 36.6167 28.6666 37.0833 29.9999 37.0833C31.9166 37.0833 33.6499 36.1 34.6333 34.4667C35.1499 33.6167 35.4166 32.6667 35.4166 31.6667C35.4166 30.3667 34.9333 29.1 34.0666 28.0833C33.0333 26.9167 31.5499 26.25 29.9999 26.25Z" fill="#A861FA"/>
<path d="M29.0499 34.5667C28.7332 34.5667 28.4165 34.4501 28.1665 34.2001L26.5166 32.5501C26.0332 32.0667 26.0332 31.2668 26.5166 30.7834C26.9999 30.3001 27.7999 30.3001 28.2832 30.7834L29.0832 31.5834L31.7499 29.1168C32.2499 28.6501 33.0499 28.6834 33.5166 29.1834C33.9832 29.6834 33.9499 30.4834 33.4499 30.9501L29.8999 34.2334C29.6499 34.4501 29.3499 34.5667 29.0499 34.5667Z" fill="#A861FA"/>
<path d="M25.6167 37.9166H13.3333C7.25 37.9166 3.75 34.4166 3.75 28.3333V14.1666C3.75 8.08325 7.25 4.58325 13.3333 4.58325H26.6667C32.75 4.58325 36.25 8.08325 36.25 14.1666V27.2666C36.25 27.7832 35.9333 28.2499 35.4333 28.4332C34.95 28.6166 34.4 28.4833 34.05 28.0833C33.0167 26.9166 31.5333 26.2499 29.9833 26.2499C27 26.2499 24.5667 28.6833 24.5667 31.6666C24.5667 32.6499 24.8333 33.6166 25.35 34.4499C25.6333 34.9499 26 35.3666 26.4 35.7166C26.8 36.0499 26.95 36.5999 26.7667 37.0999C26.6167 37.5833 26.15 37.9166 25.6167 37.9166ZM13.3333 7.08325C8.56667 7.08325 6.25 9.39992 6.25 14.1666V28.3333C6.25 33.0999 8.56667 35.4166 13.3333 35.4166H23.0333C22.4167 34.2833 22.0833 32.9999 22.0833 31.6666C22.0833 27.2999 25.6333 23.7499 30 23.7499C31.3167 23.7499 32.6167 24.0833 33.75 24.6999V14.1666C33.75 9.39992 31.4333 7.08325 26.6667 7.08325H13.3333Z" fill="#A861FA"/>
</svg>
